<?xml version="1.0" encoding="iso-8859-1"?>
<!-- Generator: Adobe Illustrator 18.1.1, SVG Export Plug-In . SVG Version: 6.00 Build 0)  -->
<svg version="1.1" id="Capa_1" xmlns="http://www.w3.org/2000/svg" xmlns:xlink="http://www.w3.org/1999/xlink" x="0px" y="0px"
	 viewBox="0 0 36.462 36.462" fill="#fff" style="enable-background:new 0 0 36.462 36.462;" xml:space="preserve">
<g>
	<path d="M32.303,17.671c0,0-19.281,0-24.594,0l0.82-0.586c6.105-3.524,19.617-11.999,19.617-11.999
		c0.559-0.325,0.752-1.044,0.428-1.605L27.4,0.586c-0.326-0.562-1.045-0.752-1.607-0.429L3.572,13.663
		c-0.562,0.326-0.752,1.045-0.43,1.608l2.127,2.305l0.018,17.713c0,0.651,0.525,1.173,1.176,1.173h25.84
		c0.648,0,1.174-0.522,1.174-1.173V18.846C33.477,18.196,32.951,17.671,32.303,17.671z M23.783,18.509l-3.627,3.523h-4.699
		l3.527-3.523H23.783z M22.252,3.371l4.172-2.676l-0.609,3.926l-4.266,2.738L22.252,3.371z M14.82,7.943L19.063,5.3l-0.76,3.98
		l-4.236,2.643L14.82,7.943z M6.367,16.739l0.711-3.99l4.209-2.689l-0.715,3.984L6.367,16.739z M10.76,18.509h4.697l-3.523,3.523
		H7.236L10.76,18.509z M31.453,35.033H7.287V23.868h24.166C31.453,23.868,31.453,35.033,31.453,35.033z M28.455,22.033H23.68
		l3.527-3.523h4.662L28.455,22.033z"/>
	<g>
	</g>
	<g>
	</g>
	<g>
	</g>
	<g>
	</g>
	<g>
	</g>
	<g>
	</g>
	<g>
	</g>
	<g>
	</g>
	<g>
	</g>
	<g>
	</g>
	<g>
	</g>
	<g>
	</g>
	<g>
	</g>
	<g>
	</g>
	<g>
	</g>
</g>
<g>
</g>
<g>
</g>
<g>
</g>
<g>
</g>
<g>
</g>
<g>
</g>
<g>
</g>
<g>
</g>
<g>
</g>
<g>
</g>
<g>
</g>
<g>
</g>
<g>
</g>
<g>
</g>
<g>
</g>
</svg>
