<?xml version="1.0" encoding="utf-8"?>
<!-- Generator: Adobe Illustrator 24.2.0, SVG Export Plug-In . SVG Version: 6.00 Build 0)  -->
<svg version="1.1" id="Layer_1" xmlns="http://www.w3.org/2000/svg" xmlns:xlink="http://www.w3.org/1999/xlink" x="0px" y="0px"
	 viewBox="0 0 1000 1000" style="enable-background:new 0 0 1000 1000;" xml:space="preserve">
<style type="text/css">
	.st0{fill:#fff;}
</style>
<path class="st0" d="M412.8,595.8c0,50.8-17.2,92-38.3,92s-38.3-41.2-38.3-92s17.2-92,38.3-92S412.8,545,412.8,595.8z M910.7,564.6
	c-44.2-3.3-86.4,8.3-129,16.9c-9.5,1.9-15.6,8.6-23.3,12.8c-12.5,6.8-24.1,15-36.3,22.4c-4.9,3-9.7,6.1-8.7,12.8
	c1,7,7.6,8.3,12.4,9.5c54.9,13.6,95.1,47.6,120.9,95.7c15.6,29.1,30.4,60.3,34.1,94.6c1.1,9.9,3.1,18.4-13.2,13
	c-9-3-18-6.2-26.9-9.7c-80.7-32.1-163.5-34.2-248.9-23c-47.6,6.3-87.6,31.3-133.2,42c-65,15.3-127.2,16.1-187.2-14.6
	c-16-8.2-29.9-21.4-43-34.3c-20.7-20.4-42.3-37-73.2-37.8c-10.6-0.3-21.7-4.4-31.5-9c-13.9-6.5-11.5-25,3.8-35
	c26-16.9,27.6-19.1,10.3-45.2c-20.8-31.3-25.6-66.6-28.7-102.1c-2.8-33.1-2.6-66.3,7.2-99.1c6.9-22.9-12.3-40-19.7-59.6
	c-10.6-28-15.7-57.2-20.4-86.2c-3.8-24.1,13.2-35.2,46.6-35.2c21.8-1.1,42.7,4.2,63.4,9.8c37.8,10.2,44.2,7.3,70.2-22.4
	c27.5-31.5,61.7-54.8,96.9-77.5c38.9-25,80.7-43.2,124.8-53.7c64.2-15.3,129-20,195.4-4c73.5,17.8,138.2,48.9,193.1,100.6
	c4.2,3.9,12.7,7.2,9.6,14.4c-2.9,6.7-11.1,2.5-16.8,3.4c-45.7,7.1-86.7,23.8-124.4,51.7c-16.7,12.3-26.3,29.5-41,42.7
	c-4.4,3.9-8.5,9.8-6.1,16.7c2.8,7.9,10.1,6,16.1,6c63.8-0.4,114.2,27.6,157.1,72.7c26.4,27.8,45.9,59.3,58.9,95.4
	C924.1,560.9,922.4,565.5,910.7,564.6z M199.9,568.7C199.9,568.7,199.9,568.6,199.9,568.7c-12-27.5-18.4-56.4-24.8-85.3
	c-1.6-7.4-7.3-12.6-14.4-13.4c-7.2-0.8-11.5,4-15.5,10.8c-16.4,27.4-20.6,56.1-17.4,87.7c3.1,30.5,11,59.5,18,89.1
	c8,34.1,20.4,47.2,52.4,47.5c-9.2-12.9-16.2-35.3-18.1-61C177.6,607.7,186.2,576.7,199.9,568.7z M484.6,564.2
	c2.4-36.7-2.7-74.8-17-111.5c-10.3-26.4-24.2-50.7-51.4-62.8c-24.1-10.7-77.8,5.5-97,27.1c-24.6,27.5-39.9,59.9-52.5,94.3
	c-10.4,28.5-7.3,58.8-14.6,87.6c-1.7,6.8-1.6,14.5-10.1,16.3c-0.9,0.2-1.8,0.4-2.6,0.7c1.6,7.4,2.7,15.3,3.3,23.7
	c1.9,27.2-2.4,51.4-10.5,65.2c-1.1,8.1,4.4,10.7,14.7,10.4c14.9-0.5,28.3,5.5,42.4,8.6c24.1,5.2,47.7,13.8,73,12.3
	c42.8-2.6,76.5-18.5,99.6-57.6C482.9,642.9,485.7,605.6,484.6,564.2z"/>
</svg>
