<?xml version="1.0" encoding="utf-8"?>
<!-- Svg Vector Icons : http://www.onlinewebfonts.com/icon -->
<!DOCTYPE svg PUBLIC "-//W3C//DTD SVG 1.1//EN" "http://www.w3.org/Graphics/SVG/1.1/DTD/svg11.dtd">
<svg version="1.1" xmlns="http://www.w3.org/2000/svg" xmlns:xlink="http://www.w3.org/1999/xlink" x="0px" y="0px" viewBox="0 0 1000 1000" enable-background="new 0 0 1000 1000" xml:space="preserve" fill="#fff">
<metadata> Svg Vector Icons : http://www.onlinewebfonts.com/icon </metadata>
<g><g transform="translate(0.000000,511.000000) scale(0.100000,-0.100000)"><path d="M3766.3,2233.3L2544.2,119.6H5000h2455.8l-999.2,1725.6C5907,2792.5,5357.4,3743.7,5232.5,3957c-123,215.2-226.7,390.1-232.5,390.1S4440.8,3395.9,3766.3,2233.3z M5962.7,2083.5l955-1646.8l-958.8-5.8c-528.4-1.9-1389.3-1.9-1917.7,0l-958.9,5.8l955,1646.8c524.6,907,956.9,1648.7,962.7,1648.7S5438.1,2990.4,5962.7,2083.5z"/><path d="M1312.5-1992.2C645.7-3143.2,100-4094.4,100-4105.9c0-15.4,718.7-21.1,2442.3-21.1c2156,0,2440.4,3.8,2430.8,28.8C4952-4038.7,2550,100.4,2538.5,100.4C2530.8,100.4,1979.3-841.2,1312.5-1992.2z M3499.3-2153.6c518.8-897.4,943.5-1639.1,943.5-1648.7s-787.8-17.3-1913.9-17.3c-1076.1,0-1910,7.7-1906.2,17.3c26.9,73,1910,3301.2,1919.6,3291.6C2550-518.4,2980.4-1258.2,3499.3-2153.6z"/><path d="M6235.6-1999.9c-668.7-1154.9-1216.3-2106.1-1216.3-2113.7c0-7.7,1099.1-13.5,2440.4-13.5c1719.8,0,2440.4,5.8,2440.4,21.1c0,26.9-2421.2,4206.3-2438.5,4206.3C7455.8,100.4,6902.4-845,6235.6-1999.9z M9381.2-3811.9c0-3.8-860.9-7.7-1912-7.7c-1120.3,0-1912,7.7-1912,17.3c0,13.4,1289.4,2252.1,1858.2,3226.3l48,80.7l958.8-1654.5C8948.8-3058.7,9381.2-3808.1,9381.2-3811.9z"/></g></g>
</svg>